<svg xmlns="http://www.w3.org/2000/svg" viewBox="0 0 512 512" shape-rendering="crispEdges">
  <rect width="512" height="512" rx="96" fill="#111316"/>
  <rect x="352" y="72" width="56" height="56" fill="#f4c95d"/>
  <rect x="112" y="176" width="48" height="48" fill="#030405"/>
  <rect x="160" y="128" width="48" height="48" fill="#030405"/>
  <rect x="208" y="176" width="96" height="48" fill="#030405"/>
  <rect x="304" y="128" width="48" height="48" fill="#030405"/>
  <rect x="352" y="176" width="48" height="48" fill="#030405"/>
  <rect x="112" y="224" width="288" height="96" fill="#030405"/>
  <rect x="160" y="320" width="192" height="96" fill="#030405"/>
  <rect x="112" y="368" width="48" height="48" fill="#030405"/>
  <rect x="352" y="368" width="48" height="48" fill="#030405"/>
  <rect x="176" y="256" width="48" height="48" fill="#ffd85f"/>
  <rect x="288" y="256" width="48" height="48" fill="#ffd85f"/>
  <rect x="196" y="256" width="8" height="48" fill="#090700"/>
  <rect x="308" y="256" width="8" height="48" fill="#090700"/>
  <rect x="244" y="320" width="24" height="16" fill="#2b2227"/>
  <rect x="40" y="304" width="80" height="8" fill="#d4dacd"/>
  <rect x="392" y="304" width="80" height="8" fill="#d4dacd"/>
  <rect x="384" y="224" width="48" height="48" fill="#030405"/>
  <rect x="432" y="176" width="32" height="48" fill="#030405"/>
  <rect x="400" y="144" width="32" height="32" fill="#030405"/>
</svg>
